<?xml version="1.0" encoding="UTF-8" standalone="no"?>
<svg viewBox="0 0 135 40" version="1.1" xmlns="http://www.w3.org/2000/svg" xmlns:xlink="http://www.w3.org/1999/xlink">
    <!-- Generator: Sketch 39 (31667) - http://www.bohemiancoding.com/sketch -->
    <title>app-store-badge</title>
    <desc>Created with Sketch.</desc>
    <defs></defs>
    <g id="Page-1" stroke="none" stroke-width="1" fill="none" fill-rule="evenodd">
        <g id="app-store-badge">
            <g id="Group">
                <path d="M130.205882,40 L4.73529412,40 C2.11764706,40 -1.67186526e-14,37.8823529 -1.67186526e-14,35.2647059 L-1.67186526e-14,4.73529412 C-1.67186526e-14,2.11764706 2.11764706,0 4.73529412,0 L130.205882,0 C132.823529,0 135,2.11764706 135,4.73529412 L135,35.2647059 C135,37.8823529 132.794118,40 130.205882,40 L130.205882,40 L130.205882,40 Z" id="Shape" fill="#A6A6A6"></path>
                <path d="M134.029412,35.2647059 C134.029412,37.3823529 132.323529,39.0882353 130.205882,39.0882353 L4.73529412,39.0882353 C2.61764706,39.0882353 0.882352941,37.3823529 0.882352941,35.2647059 L0.882352941,4.73529412 C0.882352941,2.61764706 2.58823529,0.911764706 4.73529412,0.911764706 L130.205882,0.911764706 C132.323529,0.911764706 134.029412,2.61764706 134.029412,4.73529412 L134.029412,35.2647059 L134.029412,35.2647059 L134.029412,35.2647059 Z" id="Shape" fill="#000000"></path>
                <g transform="translate(12.647059, 6.176471)" id="Shape" fill="#FFFFFF">
                    <path d="M17.4705882,13.6176471 C17.4411765,10.3823529 20.1176471,8.82352941 20.2352941,8.76470588 C18.7352941,6.55882353 16.3823529,6.26470588 15.5588235,6.23529412 C13.5882353,6.02941176 11.6764706,7.41176471 10.6764706,7.41176471 C9.64705882,7.41176471 8.11764706,6.26470588 6.44117647,6.29411765 C4.29411765,6.32352941 2.29411765,7.55882353 1.20588235,9.5 C-1.05882353,13.4117647 0.617647059,19.1764706 2.79411765,22.3529412 C3.88235294,23.9117647 5.14705882,25.6470588 6.82352941,25.5882353 C8.44117647,25.5294118 9.05882353,24.5588235 11.0294118,24.5588235 C12.9705882,24.5588235 13.5294118,25.5882353 15.2352941,25.5588235 C16.9705882,25.5294118 18.0882353,24 19.1176471,22.4411765 C20.3823529,20.6470588 20.8823529,18.9117647 20.8823529,18.8235294 C20.8529412,18.7352941 17.5,17.4705882 17.4705882,13.6176471 L17.4705882,13.6176471 Z"></path>
                    <path d="M14.2941176,4.11764706 C15.1764706,3.02941176 15.7647059,1.52941176 15.5882353,0.0294117647 C14.3235294,0.0882352941 12.7352941,0.911764706 11.8235294,1.97058824 C11.0294118,2.91176471 10.2941176,4.47058824 10.4705882,5.91176471 C11.9117647,6.02941176 13.3823529,5.20588235 14.2941176,4.11764706 L14.2941176,4.11764706 Z"></path>
                </g>
                <g transform="translate(42.352941, 17.941176)" id="Shape" fill="#FFFFFF">
                    <path d="M11.2941176,13.5588235 L9.02941176,13.5588235 L7.79411765,9.64705882 L3.47058824,9.64705882 L2.29411765,13.5588235 L0.0882352941,13.5588235 L4.38235294,0.264705882 L7.02941176,0.264705882 L11.2941176,13.5588235 L11.2941176,13.5588235 Z M7.41176471,8 L6.29411765,4.52941176 C6.17647059,4.17647059 5.94117647,3.35294118 5.61764706,2.02941176 L5.58823529,2.02941176 C5.47058824,2.58823529 5.23529412,3.44117647 4.97058824,4.52941176 L3.85294118,8 L7.41176471,8 L7.41176471,8 Z"></path>
                    <path d="M22.3235294,8.64705882 C22.3235294,10.2647059 21.8823529,11.5588235 21,12.5294118 C20.2058824,13.3823529 19.2352941,13.7941176 18.0588235,13.7941176 C16.7941176,13.7941176 15.8823529,13.3529412 15.3235294,12.4411765 L15.2941176,12.4411765 L15.2941176,17.5 L13.1764706,17.5 L13.1764706,7.14705882 C13.1764706,6.11764706 13.1470588,5.05882353 13.0882353,4 L14.9705882,4 L15.0882353,5.52941176 L15.1176471,5.52941176 C15.8235294,4.38235294 16.9117647,3.82352941 18.3529412,3.82352941 C19.4705882,3.82352941 20.4411765,4.26470588 21.1764706,5.17647059 C21.9411765,6 22.3235294,7.17647059 22.3235294,8.64705882 L22.3235294,8.64705882 Z M20.1470588,8.73529412 C20.1470588,7.79411765 19.9411765,7.02941176 19.5294118,6.41176471 C19.0588235,5.79411765 18.4411765,5.47058824 17.6764706,5.47058824 C17.1470588,5.47058824 16.6764706,5.64705882 16.2352941,6 C15.7941176,6.35294118 15.5294118,6.79411765 15.3823529,7.38235294 C15.3235294,7.64705882 15.2941176,7.85294118 15.2941176,8.02941176 L15.2941176,9.61764706 C15.2941176,10.3235294 15.5,10.9117647 15.9411765,11.3823529 C16.3823529,11.8529412 16.9117647,12.1176471 17.6176471,12.1176471 C18.4117647,12.1176471 19.0588235,11.7941176 19.5,11.1764706 C19.9117647,10.5588235 20.1470588,9.73529412 20.1470588,8.73529412 L20.1470588,8.73529412 Z"></path>
                    <path d="M33.3529412,8.64705882 C33.3529412,10.2647059 32.9117647,11.5588235 32.0294118,12.5294118 C31.2352941,13.3823529 30.2647059,13.7941176 29.0882353,13.7941176 C27.8235294,13.7941176 26.9117647,13.3529412 26.3529412,12.4411765 L26.3235294,12.4411765 L26.3235294,17.5 L24.2058824,17.5 L24.2058824,7.14705882 C24.2058824,6.11764706 24.1764706,5.05882353 24.1176471,4 L26,4 L26.1176471,5.52941176 L26.1470588,5.52941176 C26.8529412,4.38235294 27.9411765,3.82352941 29.3823529,3.82352941 C30.5,3.82352941 31.4705882,4.26470588 32.2058824,5.17647059 C32.9705882,6 33.3529412,7.17647059 33.3529412,8.64705882 L33.3529412,8.64705882 Z M31.1764706,8.73529412 C31.1764706,7.79411765 30.9705882,7.02941176 30.5294118,6.41176471 C30.0588235,5.79411765 29.4411765,5.47058824 28.6764706,5.47058824 C28.1470588,5.47058824 27.6764706,5.64705882 27.2352941,6 C26.7941176,6.35294118 26.5294118,6.79411765 26.4117647,7.38235294 C26.3529412,7.64705882 26.3235294,7.85294118 26.3235294,8.02941176 L26.3235294,9.61764706 C26.3235294,10.3235294 26.5294118,10.9117647 26.9705882,11.3823529 C27.4117647,11.8529412 27.9411765,12.1176471 28.6470588,12.1176471 C29.4411765,12.1176471 30.0882353,11.7941176 30.5294118,11.1764706 C30.9411765,10.5588235 31.1764706,9.73529412 31.1764706,8.73529412 L31.1764706,8.73529412 Z"></path>
                    <path d="M45.6764706,9.82352941 C45.6764706,10.9411765 45.2941176,11.8823529 44.5,12.5882353 C43.6470588,13.3529412 42.4117647,13.7647059 40.8823529,13.7647059 C39.4411765,13.7647059 38.2941176,13.5 37.4411765,12.9411765 L37.9411765,11.1764706 C38.8823529,11.7352941 39.9117647,12.0294118 41.0294118,12.0294118 C41.8235294,12.0294118 42.4705882,11.8529412 42.9117647,11.5 C43.3529412,11.1470588 43.5882353,10.6470588 43.5882353,10.0588235 C43.5882353,9.52941176 43.4117647,9.05882353 43.0294118,8.70588235 C42.6764706,8.32352941 42.0588235,8 41.2058824,7.67647059 C38.8823529,6.79411765 37.7058824,5.52941176 37.7058824,3.85294118 C37.7058824,2.76470588 38.1176471,1.85294118 38.9411765,1.17647059 C39.7647059,0.470588235 40.8529412,0.117647059 42.2058824,0.117647059 C43.4117647,0.117647059 44.4117647,0.323529412 45.2352941,0.735294118 L44.7058824,2.47058824 C43.9411765,2.05882353 43.1176471,1.85294118 42.1470588,1.85294118 C41.3823529,1.85294118 40.8235294,2.02941176 40.3823529,2.41176471 C40.0294118,2.73529412 39.8529412,3.14705882 39.8529412,3.61764706 C39.8529412,4.14705882 40.0588235,4.58823529 40.4705882,4.91176471 C40.8235294,5.23529412 41.4705882,5.55882353 42.4117647,5.94117647 C43.5588235,6.41176471 44.4117647,6.94117647 44.9411765,7.55882353 C45.4117647,8.14705882 45.6764706,8.91176471 45.6764706,9.82352941 L45.6764706,9.82352941 Z"></path>
                    <path d="M52.7352941,5.55882353 L50.3823529,5.55882353 L50.3823529,10.2058824 C50.3823529,11.3823529 50.7941176,11.9705882 51.6176471,11.9705882 C52,11.9705882 52.3235294,11.9411765 52.5588235,11.8823529 L52.6176471,13.5 C52.2058824,13.6470588 51.6470588,13.7352941 50.9705882,13.7352941 C50.1176471,13.7352941 49.4705882,13.4705882 49,12.9705882 C48.5294118,12.4705882 48.2941176,11.5882353 48.2941176,10.3823529 L48.2941176,5.55882353 L46.8823529,5.55882353 L46.8823529,3.97058824 L48.2941176,3.97058824 L48.2941176,2.20588235 L50.3823529,1.58823529 L50.3823529,3.97058824 L52.7352941,3.97058824 C52.7352941,3.97058824 52.7352941,5.55882353 52.7352941,5.55882353 L52.7352941,5.55882353 Z"></path>
                    <path d="M63.3235294,8.67647059 C63.3235294,10.1470588 62.9117647,11.3529412 62.0588235,12.3235294 C61.1764706,13.2941176 60,13.7941176 58.5294118,13.7941176 C57.1176471,13.7941176 56,13.3235294 55.1764706,12.3823529 C54.3529412,11.4411765 53.9117647,10.2647059 53.9117647,8.85294118 C53.9117647,7.35294118 54.3529412,6.14705882 55.2058824,5.20588235 C56.0588235,4.26470588 57.2352941,3.79411765 58.6764706,3.79411765 C60.0882353,3.79411765 61.2058824,4.26470588 62.0588235,5.20588235 C62.9411765,6.08823529 63.3235294,7.26470588 63.3235294,8.67647059 L63.3235294,8.67647059 Z M61.1176471,8.76470588 C61.1176471,7.88235294 60.9411765,7.11764706 60.5588235,6.5 C60.1176471,5.73529412 59.4705882,5.35294118 58.6470588,5.35294118 C57.7941176,5.35294118 57.1470588,5.73529412 56.7058824,6.5 C56.3235294,7.14705882 56.1470588,7.91176471 56.1470588,8.82352941 C56.1470588,9.70588235 56.3235294,10.4705882 56.7058824,11.0882353 C57.1764706,11.8529412 57.8235294,12.2352941 58.6470588,12.2352941 C59.4705882,12.2352941 60.0882353,11.8529412 60.5588235,11.0588235 C60.9411765,10.4117647 61.1176471,9.64705882 61.1176471,8.76470588 L61.1176471,8.76470588 Z"></path>
                    <path d="M70.2647059,5.85294118 C70.0588235,5.82352941 69.8235294,5.79411765 69.5882353,5.79411765 C68.8529412,5.79411765 68.2647059,6.08823529 67.8529412,6.64705882 C67.5,7.14705882 67.3235294,7.76470588 67.3235294,8.52941176 L67.3235294,13.5588235 L65.2058824,13.5588235 L65.2352941,6.97058824 C65.2352941,5.85294118 65.2058824,4.85294118 65.1470588,3.94117647 L67,3.94117647 L67.0882353,5.76470588 L67.1470588,5.76470588 C67.3823529,5.14705882 67.7352941,4.61764706 68.2058824,4.23529412 C68.6764706,3.88235294 69.2058824,3.73529412 69.7352941,3.73529412 C69.9411765,3.73529412 70.1176471,3.73529412 70.2647059,3.76470588 C70.2647059,3.82352941 70.2647059,5.85294118 70.2647059,5.85294118 L70.2647059,5.85294118 Z"></path>
                    <path d="M79.7941176,8.32352941 C79.7941176,8.70588235 79.7647059,9.02941176 79.7058824,9.29411765 L73.3235294,9.29411765 C73.3529412,10.2352941 73.6470588,10.9705882 74.2647059,11.4705882 C74.7941176,11.9117647 75.5,12.1470588 76.3529412,12.1470588 C77.2941176,12.1470588 78.1764706,12 78.9411765,11.7058824 L79.2647059,13.1764706 C78.3529412,13.5588235 77.2941176,13.7647059 76.0588235,13.7647059 C74.5588235,13.7647059 73.4117647,13.3235294 72.5588235,12.4411765 C71.7058824,11.5588235 71.2941176,10.3823529 71.2941176,8.91176471 C71.2941176,7.47058824 71.6764706,6.26470588 72.4705882,5.29411765 C73.2941176,4.26470588 74.4117647,3.76470588 75.8235294,3.76470588 C77.2058824,3.76470588 78.2647059,4.26470588 78.9705882,5.29411765 C79.5294118,6.11764706 79.7941176,7.11764706 79.7941176,8.32352941 L79.7941176,8.32352941 Z M77.7647059,7.76470588 C77.7647059,7.14705882 77.6470588,6.58823529 77.3529412,6.11764706 C76.9705882,5.52941176 76.4117647,5.23529412 75.6470588,5.23529412 C74.9411765,5.23529412 74.3823529,5.52941176 73.9411765,6.11764706 C73.5882353,6.58823529 73.3823529,7.11764706 73.3235294,7.76470588 L77.7647059,7.76470588 L77.7647059,7.76470588 L77.7647059,7.76470588 Z"></path>
                </g>
                <g transform="translate(43.529412, 6.470588)" id="Shape" fill="#FFFFFF">
                    <path d="M5.52941176,3.52941176 C5.52941176,4.70588235 5.17647059,5.58823529 4.47058824,6.17647059 C3.82352941,6.73529412 2.88235294,7 1.67647059,7 C1.08823529,7 0.558823529,6.97058824 0.147058824,6.91176471 L0.147058824,0.470588235 C0.705882353,0.382352941 1.29411765,0.323529412 1.94117647,0.323529412 C3.08823529,0.323529412 3.94117647,0.558823529 4.52941176,1.05882353 C5.20588235,1.67647059 5.52941176,2.5 5.52941176,3.52941176 L5.52941176,3.52941176 Z M4.41176471,3.55882353 C4.41176471,2.79411765 4.20588235,2.20588235 3.79411765,1.79411765 C3.38235294,1.38235294 2.79411765,1.17647059 2.02941176,1.17647059 C1.70588235,1.17647059 1.41176471,1.20588235 1.17647059,1.23529412 L1.17647059,6.11764706 C1.29411765,6.14705882 1.52941176,6.14705882 1.88235294,6.14705882 C2.67647059,6.14705882 3.29411765,5.91176471 3.73529412,5.47058824 C4.17647059,5.02941176 4.41176471,4.41176471 4.41176471,3.55882353 L4.41176471,3.55882353 Z"></path>
                    <path d="M11.3823529,4.55882353 C11.3823529,5.29411765 11.1764706,5.88235294 10.7647059,6.35294118 C10.3235294,6.82352941 9.76470588,7.05882353 9.02941176,7.05882353 C8.32352941,7.05882353 7.79411765,6.82352941 7.38235294,6.38235294 C6.97058824,5.91176471 6.76470588,5.35294118 6.76470588,4.64705882 C6.76470588,3.91176471 6.97058824,3.32352941 7.41176471,2.85294118 C7.82352941,2.38235294 8.41176471,2.14705882 9.11764706,2.14705882 C9.82352941,2.14705882 10.3529412,2.38235294 10.7941176,2.82352941 C11.1764706,3.29411765 11.3823529,3.85294118 11.3823529,4.55882353 L11.3823529,4.55882353 Z M10.2941176,4.58823529 C10.2941176,4.14705882 10.2058824,3.79411765 10,3.47058824 C9.79411765,3.08823529 9.47058824,2.91176471 9.05882353,2.91176471 C8.64705882,2.91176471 8.32352941,3.08823529 8.08823529,3.47058824 C7.91176471,3.79411765 7.79411765,4.14705882 7.79411765,4.61764706 C7.79411765,5.05882353 7.88235294,5.41176471 8.08823529,5.73529412 C8.32352941,6.11764706 8.61764706,6.29411765 9.02941176,6.29411765 C9.44117647,6.29411765 9.73529412,6.11764706 9.97058824,5.70588235 C10.2058824,5.41176471 10.2941176,5.02941176 10.2941176,4.58823529 L10.2941176,4.58823529 Z"></path>
                    <path d="M19.2352941,2.23529412 L17.7647059,6.94117647 L16.7941176,6.94117647 L16.1764706,4.88235294 C16.0294118,4.38235294 15.8823529,3.85294118 15.7941176,3.35294118 L15.7647059,3.35294118 C15.6764706,3.88235294 15.5588235,4.38235294 15.3823529,4.88235294 L14.7352941,6.94117647 L13.7647059,6.94117647 L12.3823529,2.23529412 L13.4705882,2.23529412 L14,4.47058824 C14.1176471,5 14.2352941,5.5 14.3235294,5.97058824 L14.3529412,5.97058824 C14.4411765,5.58823529 14.5588235,5.08823529 14.7352941,4.47058824 L15.4117647,2.20588235 L16.2647059,2.20588235 L16.9117647,4.41176471 C17.0588235,4.94117647 17.2058824,5.47058824 17.2941176,5.97058824 L17.3235294,5.97058824 C17.3823529,5.5 17.5,4.97058824 17.6470588,4.41176471 L18.2058824,2.20588235 L19.2352941,2.23529412 L19.2352941,2.23529412 L19.2352941,2.23529412 Z"></path>
                    <path d="M24.6764706,6.97058824 L23.6176471,6.97058824 L23.6176471,4.26470588 C23.6176471,3.44117647 23.2941176,3.02941176 22.6764706,3.02941176 C22.3529412,3.02941176 22.1176471,3.14705882 21.9117647,3.38235294 C21.7058824,3.61764706 21.6176471,3.88235294 21.6176471,4.17647059 L21.6176471,6.97058824 L20.5588235,6.97058824 L20.5588235,3.61764706 C20.5588235,3.20588235 20.5588235,2.76470588 20.5294118,2.26470588 L21.4411765,2.26470588 L21.5,3 L21.5294118,3 C21.6470588,2.76470588 21.8235294,2.58823529 22.0588235,2.44117647 C22.3529412,2.26470588 22.6470588,2.17647059 23,2.17647059 C23.4411765,2.17647059 23.7941176,2.32352941 24.0882353,2.61764706 C24.4411765,2.97058824 24.6176471,3.5 24.6176471,4.17647059 L24.6176471,6.97058824 L24.6764706,6.97058824 Z"></path>
                    <polygon points="27.5588235 6.97058824 26.5 6.97058824 26.5 0.0882352941 27.5588235 0.0882352941"></polygon>
                    <path d="M33.7352941,4.55882353 C33.7352941,5.29411765 33.5294118,5.88235294 33.1176471,6.35294118 C32.6764706,6.82352941 32.1176471,7.05882353 31.3823529,7.05882353 C30.6764706,7.05882353 30.1470588,6.82352941 29.7352941,6.38235294 C29.3235294,5.91176471 29.1176471,5.35294118 29.1176471,4.64705882 C29.1176471,3.91176471 29.3235294,3.32352941 29.7647059,2.85294118 C30.1764706,2.38235294 30.7647059,2.14705882 31.4705882,2.14705882 C32.1764706,2.14705882 32.7058824,2.38235294 33.1470588,2.82352941 C33.5294118,3.29411765 33.7352941,3.85294118 33.7352941,4.55882353 L33.7352941,4.55882353 Z M32.6470588,4.58823529 C32.6470588,4.14705882 32.5588235,3.79411765 32.3529412,3.47058824 C32.1470588,3.08823529 31.8235294,2.91176471 31.4117647,2.91176471 C31,2.91176471 30.6764706,3.08823529 30.4411765,3.47058824 C30.2647059,3.79411765 30.1470588,4.14705882 30.1470588,4.61764706 C30.1470588,5.05882353 30.2352941,5.41176471 30.4411765,5.73529412 C30.6764706,6.11764706 30.9705882,6.29411765 31.3823529,6.29411765 C31.7941176,6.29411765 32.0882353,6.11764706 32.3235294,5.70588235 C32.5588235,5.41176471 32.6470588,5.02941176 32.6470588,4.58823529 L32.6470588,4.58823529 Z"></path>
                    <path d="M38.7941176,6.97058824 L37.8529412,6.97058824 L37.7647059,6.44117647 L37.7352941,6.44117647 C37.4117647,6.88235294 36.9411765,7.08823529 36.3529412,7.08823529 C35.9117647,7.08823529 35.5588235,6.94117647 35.2647059,6.64705882 C35.0294118,6.38235294 34.8823529,6.05882353 34.8823529,5.67647059 C34.8823529,5.08823529 35.1176471,4.64705882 35.6176471,4.35294118 C36.0882353,4.05882353 36.7647059,3.91176471 37.6470588,3.91176471 L37.6470588,3.82352941 C37.6470588,3.20588235 37.3235294,2.88235294 36.6764706,2.88235294 C36.2058824,2.88235294 35.7941176,3 35.4411765,3.23529412 L35.2352941,2.55882353 C35.6764706,2.29411765 36.2058824,2.14705882 36.8529412,2.14705882 C38.0882353,2.14705882 38.7058824,2.79411765 38.7058824,4.08823529 L38.7058824,5.82352941 C38.7352941,6.32352941 38.7647059,6.67647059 38.7941176,6.97058824 L38.7941176,6.97058824 Z M37.7058824,5.35294118 L37.7058824,4.61764706 C36.5588235,4.58823529 35.9705882,4.91176471 35.9705882,5.55882353 C35.9705882,5.79411765 36.0294118,6 36.1764706,6.11764706 C36.3235294,6.23529412 36.4705882,6.29411765 36.6764706,6.29411765 C36.9117647,6.29411765 37.1176471,6.23529412 37.3235294,6.08823529 C37.5294118,5.94117647 37.6470588,5.76470588 37.6764706,5.52941176 C37.7058824,5.47058824 37.7058824,5.41176471 37.7058824,5.35294118 L37.7058824,5.35294118 Z"></path>
                    <path d="M44.7647059,6.97058824 L43.8235294,6.97058824 L43.7647059,6.20588235 L43.7352941,6.20588235 C43.4411765,6.79411765 42.9411765,7.05882353 42.2352941,7.05882353 C41.6764706,7.05882353 41.2058824,6.82352941 40.8235294,6.38235294 C40.4411765,5.94117647 40.2647059,5.35294118 40.2647059,4.64705882 C40.2647059,3.88235294 40.4705882,3.26470588 40.8823529,2.79411765 C41.2647059,2.35294118 41.7647059,2.14705882 42.3235294,2.14705882 C42.9705882,2.14705882 43.4117647,2.35294118 43.6470588,2.79411765 L43.6764706,2.79411765 L43.6764706,0.0882352941 L44.7352941,0.0882352941 L44.7352941,5.70588235 C44.7058824,6.14705882 44.7352941,6.58823529 44.7647059,6.97058824 L44.7647059,6.97058824 Z M43.6764706,4.97058824 L43.6764706,4.17647059 C43.6764706,4.02941176 43.6764706,3.94117647 43.6470588,3.85294118 C43.5882353,3.58823529 43.4705882,3.38235294 43.2647059,3.20588235 C43.0588235,3.02941176 42.8235294,2.94117647 42.5588235,2.94117647 C42.1764706,2.94117647 41.8529412,3.08823529 41.6470588,3.41176471 C41.4117647,3.73529412 41.3235294,4.11764706 41.3235294,4.61764706 C41.3235294,5.08823529 41.4411765,5.47058824 41.6470588,5.76470588 C41.8823529,6.08823529 42.1764706,6.23529412 42.5588235,6.23529412 C42.9117647,6.23529412 43.1764706,6.11764706 43.3823529,5.85294118 C43.5588235,5.58823529 43.6764706,5.32352941 43.6764706,4.97058824 L43.6764706,4.97058824 Z"></path>
                    <path d="M53.7058824,4.55882353 C53.7058824,5.29411765 53.5,5.88235294 53.0882353,6.35294118 C52.6470588,6.82352941 52.0882353,7.05882353 51.3529412,7.05882353 C50.6764706,7.05882353 50.1176471,6.82352941 49.7058824,6.38235294 C49.2941176,5.91176471 49.0882353,5.35294118 49.0882353,4.64705882 C49.0882353,3.91176471 49.2941176,3.32352941 49.7352941,2.85294118 C50.1470588,2.38235294 50.7352941,2.14705882 51.4411765,2.14705882 C52.1176471,2.14705882 52.6764706,2.38235294 53.1176471,2.82352941 C53.5294118,3.29411765 53.7058824,3.85294118 53.7058824,4.55882353 L53.7058824,4.55882353 Z M52.6470588,4.58823529 C52.6470588,4.14705882 52.5588235,3.79411765 52.3529412,3.47058824 C52.1176471,3.08823529 51.8235294,2.91176471 51.4117647,2.91176471 C51,2.91176471 50.6764706,3.08823529 50.4411765,3.47058824 C50.2647059,3.79411765 50.1470588,4.14705882 50.1470588,4.61764706 C50.1470588,5.05882353 50.2352941,5.41176471 50.4411765,5.73529412 C50.6764706,6.11764706 50.9705882,6.29411765 51.3823529,6.29411765 C51.7941176,6.29411765 52.0882353,6.11764706 52.3235294,5.70588235 C52.5294118,5.41176471 52.6470588,5.02941176 52.6470588,4.58823529 L52.6470588,4.58823529 Z"></path>
                    <path d="M59.3529412,6.97058824 L58.2941176,6.97058824 L58.2941176,4.26470588 C58.2941176,3.44117647 57.9705882,3.02941176 57.3529412,3.02941176 C57.0294118,3.02941176 56.7941176,3.14705882 56.5882353,3.38235294 C56.3823529,3.61764706 56.2941176,3.88235294 56.2941176,4.17647059 L56.2941176,6.97058824 L55.2352941,6.97058824 L55.2352941,3.61764706 C55.2352941,3.20588235 55.2352941,2.76470588 55.2058824,2.26470588 L56.1176471,2.26470588 L56.1764706,3 L56.2058824,3 C56.3235294,2.76470588 56.5,2.58823529 56.7352941,2.44117647 C57.0294118,2.26470588 57.3235294,2.17647059 57.6764706,2.17647059 C58.1176471,2.17647059 58.4705882,2.32352941 58.7647059,2.61764706 C59.1176471,2.97058824 59.2941176,3.5 59.2941176,4.17647059 L59.2941176,6.97058824 L59.3529412,6.97058824 Z"></path>
                    <path d="M66.4117647,3.02941176 L65.2647059,3.02941176 L65.2647059,5.32352941 C65.2647059,5.91176471 65.4705882,6.20588235 65.8823529,6.20588235 C66.0588235,6.20588235 66.2352941,6.17647059 66.3529412,6.14705882 L66.3823529,6.94117647 C66.1764706,7.02941176 65.9117647,7.05882353 65.5588235,7.05882353 C65.1470588,7.05882353 64.8235294,6.94117647 64.5882353,6.67647059 C64.3529412,6.41176471 64.2352941,6 64.2352941,5.41176471 L64.2352941,3.02941176 L63.5294118,3.02941176 L63.5294118,2.23529412 L64.2058824,2.23529412 L64.2058824,1.38235294 L65.2352941,1.05882353 L65.2352941,2.23529412 L66.3823529,2.23529412 L66.4117647,3.02941176 L66.4117647,3.02941176 L66.4117647,3.02941176 Z"></path>
                    <path d="M71.9411765,6.97058824 L70.8823529,6.97058824 L70.8823529,4.29411765 C70.8823529,3.44117647 70.5588235,3.02941176 69.9411765,3.02941176 C69.4411765,3.02941176 69.1176471,3.26470588 68.9411765,3.76470588 C68.9117647,3.88235294 68.8823529,4 68.8823529,4.14705882 L68.8823529,6.97058824 L67.8235294,6.97058824 L67.8235294,0.0882352941 L68.8823529,0.0882352941 L68.8823529,2.94117647 L68.9117647,2.94117647 C69.2352941,2.41176471 69.7058824,2.17647059 70.3235294,2.17647059 C70.7647059,2.17647059 71.1176471,2.32352941 71.4117647,2.61764706 C71.7647059,2.97058824 71.9411765,3.5 71.9411765,4.20588235 C71.9411765,4.14705882 71.9411765,6.97058824 71.9411765,6.97058824 L71.9411765,6.97058824 Z"></path>
                    <path d="M77.6764706,4.38235294 C77.6764706,4.55882353 77.6764706,4.73529412 77.6470588,4.85294118 L74.5,4.85294118 C74.5,5.32352941 74.6764706,5.67647059 74.9411765,5.91176471 C75.2058824,6.11764706 75.5588235,6.23529412 75.9705882,6.23529412 C76.4411765,6.23529412 76.8529412,6.14705882 77.2352941,6 L77.4117647,6.73529412 C76.9705882,6.94117647 76.4411765,7.02941176 75.8235294,7.02941176 C75.0882353,7.02941176 74.5294118,6.82352941 74.0882353,6.38235294 C73.6764706,5.94117647 73.4705882,5.38235294 73.4705882,4.64705882 C73.4705882,3.94117647 73.6764706,3.35294118 74.0588235,2.88235294 C74.4705882,2.38235294 75,2.11764706 75.7058824,2.11764706 C76.3823529,2.11764706 76.9117647,2.38235294 77.2352941,2.88235294 C77.5294118,3.29411765 77.6764706,3.79411765 77.6764706,4.38235294 L77.6764706,4.38235294 Z M76.6764706,4.11764706 C76.6764706,3.79411765 76.6176471,3.52941176 76.4705882,3.32352941 C76.2941176,3.02941176 76,2.88235294 75.6470588,2.88235294 C75.2941176,2.88235294 75.0294118,3.02941176 74.8235294,3.32352941 C74.6470588,3.55882353 74.5588235,3.82352941 74.5,4.14705882 C74.5,4.11764706 76.6764706,4.11764706 76.6764706,4.11764706 L76.6764706,4.11764706 Z"></path>
                </g>
            </g>
        </g>
    </g>
</svg>